<?xml version="1.0" standalone="no"?><svg xmlns="http://www.w3.org/2000/svg" viewBox="0 0 1440 320"><path fill="#0F0F0F" fill-opacity="1" d="M0,128L40,128C80,128,160,128,240,154.7C320,181,400,235,480,245.3C560,256,640,224,720,186.7C800,149,880,107,960,128C1040,149,1120,235,1200,261.3C1280,288,1360,256,1400,240L1440,224L1440,320L1400,320C1360,320,1280,320,1200,320C1120,320,1040,320,960,320C880,320,800,320,720,320C640,320,560,320,480,320C400,320,320,320,240,320C160,320,80,320,40,320L0,320Z"></path></svg>
